<svg xmlns="http://www.w3.org/2000/svg" xmlns:xlink="http://www.w3.org/1999/xlink" width="500" zoomAndPan="magnify" viewBox="0 0 375 374.999991" height="500" preserveAspectRatio="xMidYMid meet" version="1.0"><defs><g/></defs><g fill="#f6f6e9" fill-opacity="1"><g transform="translate(96.082043, 187.501322)"><g><path d="M 0.488281 -2.878906 C 2.523438 -0.488281 5.046875 0.53125 8.191406 0.53125 C 13.460938 0.53125 17.578125 -2.480469 17.578125 -8.902344 L 17.578125 -29.535156 L 13.90625 -29.535156 L 13.90625 -8.945312 C 13.90625 -5.269531 11.601562 -2.746094 7.972656 -2.746094 C 5.402344 -2.746094 3.675781 -4.117188 2.390625 -5.667969 Z M 0.488281 -2.878906 "/></g></g></g><g fill="#f6f6e9" fill-opacity="1"><g transform="translate(116.007781, 187.501322)"><g><path d="M 12.664062 0.53125 C 19.175781 0.53125 23.25 -4.515625 23.25 -10.714844 C 23.25 -16.914062 19.175781 -21.917969 12.664062 -21.917969 C 6.15625 -21.917969 2.082031 -16.914062 2.082031 -10.714844 C 2.082031 -4.515625 6.15625 0.53125 12.664062 0.53125 Z M 12.664062 -2.433594 C 8.105469 -2.433594 5.535156 -6.332031 5.535156 -10.714844 C 5.535156 -15.054688 8.105469 -18.953125 12.664062 -18.953125 C 17.226562 -18.953125 19.75 -15.054688 19.75 -10.714844 C 19.75 -6.332031 17.226562 -2.433594 12.664062 -2.433594 Z M 12.664062 -2.433594 "/></g></g></g><g fill="#f6f6e9" fill-opacity="1"><g transform="translate(140.228668, 187.501322)"><g><path d="M 6.640625 0 L 6.640625 -15.144531 C 7.617188 -16.871094 10.40625 -18.554688 12.441406 -18.554688 C 12.976562 -18.554688 13.375 -18.511719 13.773438 -18.421875 L 13.773438 -21.832031 C 10.847656 -21.832031 8.371094 -20.191406 6.640625 -17.933594 L 6.640625 -21.386719 L 3.320312 -21.386719 L 3.320312 0 Z M 6.640625 0 "/></g></g></g><g fill="#f6f6e9" fill-opacity="1"><g transform="translate(153.733847, 187.501322)"><g><path d="M 22.140625 0 L 22.140625 -29.535156 L 18.820312 -29.535156 L 18.820312 -18.15625 C 17.09375 -20.503906 14.480469 -21.917969 11.601562 -21.917969 C 5.976562 -21.917969 2.082031 -17.492188 2.082031 -10.671875 C 2.082031 -3.71875 6.023438 0.53125 11.601562 0.53125 C 14.613281 0.53125 17.226562 -1.019531 18.820312 -3.1875 L 18.820312 0 Z M 18.820312 -5.800781 C 17.625 -3.941406 15.054688 -2.433594 12.398438 -2.433594 C 8.105469 -2.433594 5.535156 -5.933594 5.535156 -10.671875 C 5.535156 -15.410156 8.105469 -18.953125 12.398438 -18.953125 C 15.054688 -18.953125 17.625 -17.359375 18.820312 -15.5 Z M 18.820312 -5.800781 "/></g></g></g><g fill="#f6f6e9" fill-opacity="1"><g transform="translate(178.087564, 187.501322)"><g><path d="M 20.015625 0 L 20.015625 -14.703125 C 20.015625 -19.882812 16.25 -21.917969 11.734375 -21.917969 C 8.238281 -21.917969 5.492188 -20.769531 3.1875 -18.378906 L 4.738281 -16.074219 C 6.640625 -18.113281 8.722656 -19.042969 11.292969 -19.042969 C 14.390625 -19.042969 16.695312 -17.402344 16.695312 -14.523438 L 16.695312 -10.671875 C 14.96875 -12.664062 12.53125 -13.59375 9.609375 -13.59375 C 5.976562 -13.59375 2.125 -11.335938 2.125 -6.554688 C 2.125 -1.902344 5.976562 0.53125 9.609375 0.53125 C 12.488281 0.53125 14.921875 -0.488281 16.695312 -2.433594 L 16.695312 0 Z M 16.695312 -4.515625 C 15.410156 -2.746094 13.152344 -1.859375 10.804688 -1.859375 C 7.707031 -1.859375 5.535156 -3.808594 5.535156 -6.507812 C 5.535156 -9.253906 7.707031 -11.203125 10.804688 -11.203125 C 13.152344 -11.203125 15.410156 -10.316406 16.695312 -8.546875 Z M 16.695312 -4.515625 "/></g></g></g><g fill="#f6f6e9" fill-opacity="1"><g transform="translate(200.315852, 187.501322)"><g><path d="M 21.078125 0 L 21.078125 -15.011719 C 21.078125 -19.660156 18.730469 -21.917969 14.257812 -21.917969 C 11.070312 -21.917969 8.148438 -20.058594 6.640625 -18.289062 L 6.640625 -21.386719 L 3.320312 -21.386719 L 3.320312 0 L 6.640625 0 L 6.640625 -15.632812 C 7.882812 -17.359375 10.363281 -18.953125 12.976562 -18.953125 C 15.851562 -18.953125 17.757812 -17.757812 17.757812 -13.992188 L 17.757812 0 Z M 21.078125 0 "/></g></g></g><g fill="#f6f6e9" fill-opacity="1"><g transform="translate(223.60686, 187.501322)"><g/></g></g><g fill="#f6f6e9" fill-opacity="1"><g transform="translate(233.923889, 187.501322)"><g><path d="M 17.3125 0.53125 C 22.671875 0.53125 26.214844 -1.949219 28.695312 -5.3125 L 25.550781 -7.039062 C 23.867188 -4.515625 20.8125 -2.746094 17.3125 -2.746094 C 10.980469 -2.746094 6.066406 -7.75 6.066406 -14.746094 C 6.066406 -21.785156 10.980469 -26.746094 17.3125 -26.746094 C 20.8125 -26.746094 23.867188 -24.929688 25.550781 -22.449219 L 28.652344 -24.179688 C 26.304688 -27.5 22.671875 -30.023438 17.3125 -30.023438 C 8.945312 -30.023438 2.257812 -23.824219 2.257812 -14.746094 C 2.257812 -5.667969 8.945312 0.53125 17.3125 0.53125 Z M 17.3125 0.53125 "/></g></g></g><g fill="#f6f6e9" fill-opacity="1"><g transform="translate(262.749864, 187.501322)"><g><path d="M 12.664062 0.53125 C 19.175781 0.53125 23.25 -4.515625 23.25 -10.714844 C 23.25 -16.914062 19.175781 -21.917969 12.664062 -21.917969 C 6.15625 -21.917969 2.082031 -16.914062 2.082031 -10.714844 C 2.082031 -4.515625 6.15625 0.53125 12.664062 0.53125 Z M 12.664062 -2.433594 C 8.105469 -2.433594 5.535156 -6.332031 5.535156 -10.714844 C 5.535156 -15.054688 8.105469 -18.953125 12.664062 -18.953125 C 17.226562 -18.953125 19.75 -15.054688 19.75 -10.714844 C 19.75 -6.332031 17.226562 -2.433594 12.664062 -2.433594 Z M 12.664062 -2.433594 "/></g></g></g><g fill="#f6f6e9" fill-opacity="1"><g transform="translate(286.970747, 187.501322)"><g><path d="M 21.035156 0 L 12.796875 -10.980469 L 20.546875 -21.386719 L 16.695312 -21.386719 L 10.761719 -13.242188 L 4.828125 -21.386719 L 0.972656 -21.386719 L 8.722656 -10.980469 L 0.53125 0 L 4.339844 0 L 10.761719 -8.769531 L 17.179688 0 Z M 21.035156 0 "/></g></g></g><g fill="#ffbd59" fill-opacity="1"><g transform="translate(315.249182, 188.284896)"><g><path d="M 4.8125 -2.734375 C 5.007812 -2.734375 5.195312 -2.691406 5.375 -2.609375 C 5.550781 -2.535156 5.703125 -2.429688 5.828125 -2.296875 C 5.960938 -2.171875 6.066406 -2.019531 6.140625 -1.84375 C 6.210938 -1.664062 6.25 -1.476562 6.25 -1.28125 C 6.25 -1.082031 6.210938 -0.894531 6.140625 -0.71875 C 6.066406 -0.539062 5.960938 -0.382812 5.828125 -0.25 C 5.703125 -0.125 5.550781 -0.0234375 5.375 0.046875 C 5.195312 0.117188 5.007812 0.15625 4.8125 0.15625 C 4.601562 0.15625 4.410156 0.117188 4.234375 0.046875 C 4.066406 -0.0234375 3.914062 -0.125 3.78125 -0.25 C 3.65625 -0.382812 3.554688 -0.539062 3.484375 -0.71875 C 3.410156 -0.894531 3.375 -1.082031 3.375 -1.28125 C 3.375 -1.476562 3.410156 -1.664062 3.484375 -1.84375 C 3.554688 -2.019531 3.65625 -2.171875 3.78125 -2.296875 C 3.914062 -2.429688 4.066406 -2.535156 4.234375 -2.609375 C 4.410156 -2.691406 4.601562 -2.734375 4.8125 -2.734375 Z M 4.8125 -2.734375 "/></g></g></g><g fill="#ffbd59" fill-opacity="1"><g transform="translate(329.269219, 188.284896)"><g><path d="M 0.9375 -4.171875 C 0.9375 -4.910156 1.035156 -5.566406 1.234375 -6.140625 C 1.441406 -6.710938 1.734375 -7.195312 2.109375 -7.59375 C 2.484375 -7.988281 2.929688 -8.289062 3.453125 -8.5 C 3.972656 -8.707031 4.554688 -8.8125 5.203125 -8.8125 C 5.472656 -8.8125 5.742188 -8.789062 6.015625 -8.75 C 6.285156 -8.71875 6.550781 -8.664062 6.8125 -8.59375 L 6.8125 -12.25 L 8.328125 -12.25 L 8.328125 0 L 6.984375 0 L 6.921875 -1.640625 C 6.503906 -1.035156 6.046875 -0.582031 5.546875 -0.28125 C 5.054688 0.0078125 4.523438 0.15625 3.953125 0.15625 C 3.460938 0.15625 3.023438 0.0507812 2.640625 -0.15625 C 2.265625 -0.363281 1.953125 -0.65625 1.703125 -1.03125 C 1.453125 -1.414062 1.257812 -1.875 1.125 -2.40625 C 1 -2.9375 0.9375 -3.523438 0.9375 -4.171875 Z M 2.484375 -4.265625 C 2.484375 -3.210938 2.640625 -2.425781 2.953125 -1.90625 C 3.265625 -1.394531 3.703125 -1.140625 4.265625 -1.140625 C 4.648438 -1.140625 5.050781 -1.304688 5.46875 -1.640625 C 5.894531 -1.984375 6.34375 -2.488281 6.8125 -3.15625 L 6.8125 -7.203125 C 6.5625 -7.316406 6.285156 -7.40625 5.984375 -7.46875 C 5.679688 -7.53125 5.382812 -7.5625 5.09375 -7.5625 C 4.269531 -7.5625 3.628906 -7.296875 3.171875 -6.765625 C 2.710938 -6.234375 2.484375 -5.398438 2.484375 -4.265625 Z M 2.484375 -4.265625 "/></g></g></g><g fill="#ffbd59" fill-opacity="1"><g transform="translate(343.289255, 188.284896)"><g><path d="M 8.734375 -4.8125 C 8.734375 -4.59375 8.726562 -4.410156 8.71875 -4.265625 C 8.71875 -4.128906 8.710938 -3.992188 8.703125 -3.859375 L 2.59375 -3.859375 C 2.59375 -2.972656 2.835938 -2.289062 3.328125 -1.8125 C 3.828125 -1.332031 4.546875 -1.09375 5.484375 -1.09375 C 5.742188 -1.09375 6 -1.101562 6.25 -1.125 C 6.5 -1.144531 6.742188 -1.171875 6.984375 -1.203125 C 7.222656 -1.242188 7.445312 -1.285156 7.65625 -1.328125 C 7.875 -1.367188 8.078125 -1.414062 8.265625 -1.46875 L 8.265625 -0.234375 C 7.859375 -0.117188 7.394531 -0.0234375 6.875 0.046875 C 6.363281 0.117188 5.828125 0.15625 5.265625 0.15625 C 4.523438 0.15625 3.882812 0.0546875 3.34375 -0.140625 C 2.8125 -0.347656 2.375 -0.644531 2.03125 -1.03125 C 1.6875 -1.414062 1.429688 -1.882812 1.265625 -2.4375 C 1.097656 -3 1.015625 -3.628906 1.015625 -4.328125 C 1.015625 -4.941406 1.101562 -5.519531 1.28125 -6.0625 C 1.457031 -6.613281 1.710938 -7.09375 2.046875 -7.5 C 2.390625 -7.914062 2.804688 -8.242188 3.296875 -8.484375 C 3.785156 -8.734375 4.34375 -8.859375 4.96875 -8.859375 C 5.570312 -8.859375 6.109375 -8.757812 6.578125 -8.5625 C 7.046875 -8.375 7.441406 -8.101562 7.765625 -7.75 C 8.085938 -7.40625 8.328125 -6.984375 8.484375 -6.484375 C 8.648438 -5.984375 8.734375 -5.425781 8.734375 -4.8125 Z M 7.171875 -5.03125 C 7.179688 -5.414062 7.140625 -5.765625 7.046875 -6.078125 C 6.960938 -6.398438 6.820312 -6.675781 6.625 -6.90625 C 6.425781 -7.144531 6.179688 -7.328125 5.890625 -7.453125 C 5.609375 -7.585938 5.273438 -7.65625 4.890625 -7.65625 C 4.566406 -7.65625 4.269531 -7.585938 4 -7.453125 C 3.726562 -7.328125 3.492188 -7.148438 3.296875 -6.921875 C 3.097656 -6.691406 2.9375 -6.414062 2.8125 -6.09375 C 2.695312 -5.769531 2.625 -5.414062 2.59375 -5.03125 Z M 7.171875 -5.03125 "/></g></g></g><g fill="#ffbd59" fill-opacity="1"><g transform="translate(357.309293, 188.284896)"><g><path d="M 0.578125 -8.703125 L 2.28125 -8.703125 L 4.421875 -2.953125 L 4.875 -1.546875 L 5.359375 -2.984375 L 7.46875 -8.703125 L 9.125 -8.703125 L 5.71875 0 L 3.984375 0 Z M 0.578125 -8.703125 "/></g></g></g><g fill="#004aad" fill-opacity="1"><g transform="translate(6.668031, 186.752006)"><g><path d="M 24.90625 -2.546875 L 21.953125 0.4375 L 3.71875 -14.78125 L 21.953125 -30 L 24.90625 -27 L 10.125 -14.84375 Z M 24.90625 -2.546875 "/></g></g></g><g fill="#ffffff" fill-opacity="1"><g transform="translate(35.822554, 186.752006)"><g><path d="M 26.234375 -38.328125 L 7.625 5.828125 L 3.125 5.828125 L 21.734375 -38.328125 Z M 26.234375 -38.328125 "/></g></g></g><g fill="#cb2e2e" fill-opacity="1"><g transform="translate(64.977077, 186.752006)"><g><path d="M 5.671875 -27 L 8.59375 -30 L 26.828125 -14.78125 L 8.59375 0.4375 L 5.671875 -2.546875 L 20.453125 -14.734375 Z M 5.671875 -27 "/></g></g></g></svg>